<svg width="306" height="61" viewBox="0 0 306 61" fill="none" xmlns="http://www.w3.org/2000/svg">
<path d="M299.286 26.6972C297.33 26.9471 293.803 28.4825 279.305 28.6945C269.451 28.5849 259.904 27.3976 250.944 26.1602C236.987 24.2137 221.74 21.8663 207.637 22.5883C196.473 23.1454 188.761 25.7254 184.05 28.3318C178.635 31.3604 174.536 35.9194 175.299 36.3671C175.315 36.4212 175.806 36.354 176.713 36.2292C212.606 32.7946 198.26 60.5103 198.26 60.5103C198.26 60.5103 215.911 56.991 213.007 44.2625C212.039 40.0169 208.851 37.4946 204.724 36.0599C216.7 37.2175 226.577 39.1592 239.014 40.6886C253.394 42.4343 269.66 42.8904 283.42 39.1424C294.514 36.1212 300.407 30.716 300.164 30.8989C300.367 30.7034 306.348 24.9637 305.984 25.3134L299.286 26.6972ZM295.584 31.06C281.337 40.8864 257.703 40.8254 239.321 38.8342C223.76 37.1287 208.749 34.2622 193.589 34.2979C187.797 34.2883 183.165 34.754 180.041 35.2708C178.749 35.4848 177.182 35.7835 175.935 36.1342C177.391 35.1565 179.6 32.7275 185.231 29.9237C189.771 27.6966 197.05 25.434 207.798 25.025C221.61 24.488 236.641 26.8501 250.427 28.7734C259.42 30.0134 269.13 31.2117 279.292 31.2891C285.994 31.1711 290.815 30.9506 297.342 29.667C296.256 30.5246 295.348 31.2412 295.584 31.06Z" fill="#3B181E"/>
<path d="M47.2942 41.9959C62.926 42.0019 77.2252 39.1969 89.4836 37.5224C93.765 36.9126 97.7973 36.4203 101.571 36.0506C97.4296 37.4837 94.2312 40.0082 93.2603 44.2633C90.3562 56.9927 108.007 60.512 108.007 60.512C108.007 60.512 93.6629 32.7952 129.552 36.229C130.444 36.351 130.953 36.4177 130.968 36.3672C131.617 35.9829 128.173 31.5962 122.271 28.2816C104.982 18.7587 75.7261 23.1611 55.34 26.1579C37.1883 28.7206 23.2538 30.0066 6.48504 26.546C4.32488 26.0915 2.15539 25.5353 0 25.0318L3.61916 28.5253C14.9514 39.2063 30.1833 42.0135 47.2942 41.9959ZM55.8634 28.7699C75.696 25.8525 103.735 21.4161 121.093 29.8752C126.673 32.6663 128.878 35.193 130.296 36.1236C127.361 35.3024 122.939 34.7474 119.555 34.5192C109.702 33.8453 98.9749 34.7869 89.196 36.0063C76.8138 37.4837 62.5798 40.0637 47.3064 39.8908C35.4548 39.7832 23.8108 38.2144 13.8434 33.011C11.7561 31.7685 8.71358 29.7157 8.94691 29.6742C25.9655 32.2959 37.5411 31.3551 55.8634 28.7699Z" fill="#3B181E"/>
<path d="M134.454 39.6605C129.329 40.4403 125.803 43.3698 124.987 47.3151C124.222 51.1753 126.23 55.309 130.675 57.2555C134.199 58.9813 139.343 58.6114 141.93 56.0593C144.738 53.5017 142.888 49.2079 139.803 48.6294C139.308 48.5328 139.04 48.5304 139.04 48.5304C138.984 48.5641 140.255 48.6362 141.303 49.8653C142.59 51.4146 142.59 53.7297 140.762 55.1431C138.881 56.6213 135.422 57.1469 131.87 55.4621C128.835 54.0301 127.044 50.763 127.736 47.7109C128.36 44.4021 131.654 42.2487 134.926 41.6698C138.326 41.0416 141.464 41.885 144.579 43.2982C148.365 45.0862 150.637 46.7703 153.133 48.4026C144.946 40.7573 136.344 34.287 129.761 25.7633C126.654 21.6647 123.526 15.8242 125.752 11.3418C125.883 11.0889 126.242 10.3938 126.694 9.96315C127.652 9.82302 129.635 10.0202 131.734 10.9517C135.663 12.7082 138.701 16.2628 140.533 19.6275C141.611 21.604 142.706 23.6125 143.818 25.6501L147.688 24.7861C147.481 22.7942 147.272 20.7768 147.06 18.7362C146.862 16.7209 146.789 14.8616 147.181 12.9404C148.465 5.64222 152.953 4.51671 153.144 4.32268C156.05 5.82008 158.175 7.94871 159.075 12.854C159.469 14.7828 159.42 16.6337 159.225 18.6501C159.022 20.6913 158.822 22.709 158.624 24.7011L162.492 25.5602C163.6 23.5326 164.692 21.5338 165.767 19.566C166.817 17.6424 168.028 16.0286 169.533 14.5047C171.823 12.1788 176.036 9.45491 179.576 9.96256C181.564 11.8964 181.5 15.3796 180.782 17.859C179.973 20.7658 178.288 23.4081 176.512 25.7625C169.976 34.2488 161.334 40.7701 153.132 48.4024C156.98 45.8863 161.259 42.825 166.2 41.7592C172.336 40.4509 175.84 43.6701 176.072 43.7357C177.377 44.772 178.243 46.1951 178.529 47.7107C179.221 50.7628 177.429 54.0297 174.394 55.4619C170.846 57.1451 167.385 56.6225 165.503 55.1431C164.468 54.3431 164.056 53.3125 164.056 52.3167C164.055 51.324 164.464 50.464 164.962 49.8651C166.01 48.6362 167.281 48.5639 167.224 48.5302C167.224 48.5302 166.957 48.5326 166.462 48.6294C163.32 49.2187 161.565 53.5368 164.334 56.0593C166.931 58.6206 172.081 58.9733 175.59 57.2555C180.026 55.3123 182.044 51.1838 181.278 47.3151C180.058 41.4179 172.486 37.7313 164.619 40.4573C169.903 36.3801 174.878 32.0242 178.975 27.1177C180.957 24.6827 182.916 21.8967 183.988 18.531C185.255 14.6167 184.901 9.96096 181.476 7.22187C175.989 5.89914 170.329 8.72866 166.572 12.4148C165.446 13.5061 164.418 14.7452 163.516 16.0284C163.526 14.8053 163.45 13.5569 163.205 12.3409C162.265 7.10748 159.226 1.93593 153.146 0.625977L152.906 0.679275C147.06 1.85668 143.911 7.42649 143.048 12.4387C142.81 13.6267 142.738 14.8413 142.752 16.032C140.519 12.8482 137.44 9.87053 133.459 8.16831C130.737 7.01526 127.739 6.51239 124.793 7.22187C123.697 8.09784 123.018 9.0848 122.459 10.2568C119.9 15.8053 123.29 22.2159 127.298 27.1203C131.385 32.0008 136.438 36.4346 141.657 40.4612C139.394 39.6759 137.147 39.2423 134.454 39.6605Z" fill="#3B181E"/>
</svg>
