<svg width="27" height="27" viewBox="0 0 27 27" fill="none" xmlns="http://www.w3.org/2000/svg">
<path fill-rule="evenodd" clip-rule="evenodd" d="M11.7322 7.34431C11.6131 6.77235 11.3828 6.71752 11.1737 6.66946C11.0033 6.62879 10.8072 6.59134 10.6111 6.55388C10.4175 6.51689 10.083 6.53415 9.75349 6.80127C9.42204 7.06532 8.51536 7.68752 8.21717 9.24844C7.91947 10.8067 8.68664 12.5171 8.79149 12.7563C8.89926 12.9933 10.1561 16.6585 12.9003 18.5003C15.1824 20.0293 15.7282 19.9172 16.2755 19.9676C16.8258 20.0159 18.1626 19.5327 18.5487 18.8381C18.9343 18.1461 19.0554 17.5118 19.0082 17.3648C18.9611 17.2178 18.7799 17.1021 18.515 16.8864C18.2526 16.6712 16.9536 15.6304 16.7029 15.4716C16.4541 15.3158 16.2681 15.2262 16.0116 15.5046C15.7552 15.7829 15.0546 16.3904 14.8423 16.569C14.6301 16.7476 14.4557 16.7413 14.1903 16.5283C13.9278 16.3131 13.0451 15.7982 12.1284 14.503C11.4151 13.4956 11.0225 12.3465 10.9114 11.9952C10.7999 11.6465 10.9853 11.5034 11.1634 11.3723C11.3235 11.2568 11.5295 11.0581 11.7126 10.901C11.8932 10.7434 11.9666 10.6221 12.1062 10.4297C12.2434 10.2367 12.2304 10.0422 12.1882 9.86908C12.146 9.69598 11.8739 8.02071 11.7322 7.34431Z" fill="white"/>
<path d="M3.89061 21.4948L4.36495 21.653L4.453 21.3888L4.2748 21.1749L3.89061 21.4948ZM2.38889 26L1.91455 25.8419L1.63529 26.6797L2.49735 26.4881L2.38889 26ZM8.03513 24.7453L8.25401 24.2957L8.09706 24.2193L7.92667 24.2572L8.03513 24.7453ZM25.5 13.5C25.5 20.1274 20.1274 25.5 13.5 25.5V26.5C20.6797 26.5 26.5 20.6797 26.5 13.5H25.5ZM13.5 1.5C20.1274 1.5 25.5 6.87258 25.5 13.5H26.5C26.5 6.3203 20.6797 0.5 13.5 0.5V1.5ZM1.5 13.5C1.5 6.87258 6.87258 1.5 13.5 1.5V0.5C6.3203 0.5 0.5 6.3203 0.5 13.5H1.5ZM4.2748 21.1749C2.54195 19.0943 1.5 16.4195 1.5 13.5H0.5C0.5 16.6619 1.62947 19.5613 3.50641 21.8148L4.2748 21.1749ZM2.86323 26.1581L4.36495 21.653L3.41627 21.3367L1.91455 25.8419L2.86323 26.1581ZM7.92667 24.2572L2.28042 25.5119L2.49735 26.4881L8.1436 25.2334L7.92667 24.2572ZM13.5 25.5C11.6178 25.5 9.8382 25.067 8.25401 24.2957L7.81626 25.1948C9.53385 26.0311 11.4629 26.5 13.5 26.5V25.5Z" fill="white"/>
</svg>
